PathFileType	4	(X/Y/Z)	Walk6.trc
DataRate	CameraRate	NumFrames	NumMarkers	Units	OrigDataRate	OrigDataStartFrame	OrigNumFrames
200.000000	200.000000	7	59	mm	200.000000	272	490
Frame#	Times		LFHD		RFHD		CLAV		RBack		RACR1		RUA1		RFA1		RWRR		RWRU		RCAR		LACR1		LUA1		LFA1		LWRU		RTH1		RTH3		LTH3		LTH2		LTH4		LLFC		LWRR		LTH1		T10		RElbow		LASI		C7		RTH2		LTB2		LToe		LBHD		LTB4		RTH4		STRN		LMMAL		RTB1		LMT1		RTB2		RBHD		LTB1		LCAL		LCAR		LElbow		LTB3		RPSI		RElbowM		LElbowM		RLFC		LMT5		LLMAL		LPSI		RTB4		RMT1		RASI		RTB3		RCAL		RMT5		RLMAL		RToe		RMMAL
			X1	Y1	Z1	X2	Y2	Z2	X3	Y3	Z3	X4	Y4	Z4	X5	Y5	Z5	X6	Y6	Z6	X7	Y7	Z7	X8	Y8	Z8	X9	Y9	Z9	X10	Y10	Z10	X11	Y11	Z11	X12	Y12	Z12	X13	Y13	Z13	X14	Y14	Z14	X15	Y15	Z15	X16	Y16	Z16	X17	Y17	Z17	X18	Y18	Z18	X19	Y19	Z19	X20	Y20	Z20	X21	Y21	Z21	X22	Y22	Z22	X23	Y23	Z23	X24	Y24	Z24	X25	Y25	Z25	X26	Y26	Z26	X27	Y27	Z27	X28	Y28	Z28	X29	Y29	Z29	X30	Y30	Z30	X31	Y31	Z31	X32	Y32	Z32	X33	Y33	Z33	X34	Y34	Z34	X35	Y35	Z35	X36	Y36	Z36	X37	Y37	Z37	X38	Y38	Z38	X39	Y39	Z39	X40	Y40	Z40	X41	Y41	Z41	X42	Y42	Z42	X43	Y43	Z43	X44	Y44	Z44	X45	Y45	Z45	X46	Y46	Z46	X47	Y47	Z47	X48	Y48	Z48	X49	Y49	Z49	X50	Y50	Z50	X51	Y51	Z51	X52	Y52	Z52	X53	Y53	Z53	X54	Y54	Z54	X55	Y55	Z55	X56	Y56	Z56	X57	Y57	Z57	X58	Y58	Z58	X59	Y59	Z59

272	1.36	-298.36	1432.2	-123.32	-309.88	1423.4	-27.668	-320.74	1181.1	-84.721	-512.96	1145.5	29.901	-396.6	1213.4	93.337	-383.8	1072.7	175.98	-306.51	831.9	210.44	-277.97	735.66	175.14	-316.88	729.81	235.36	-262.02	682.43	229.32	-388.08	1205.1	-275.57	-372.99	1036.9	-339.07	-370.76	826.73	-385.53	-391.67	716.57	-407.83	-396.11	628.24	140.28	-387.99	458.56	106.09	-351.33	486.14	-232.21	-313.45	586.28	-232.96	-362.13	568.33	-262.09	-318.39	399.45	-191.31	-340.57	715.38	-370.48	-373.72	651.16	-283.96	-550.17	1064.7	-77.523	-377.03	942.97	206.05	-333.03	816.81	-227.65	-464.89	1264.4	-91.552	-337.89	550.56	105.88	-323.26	212.85	-176.4	-188.34	30.632	-99.517	-421.67	1349.9	-155	-308.3	214.9	-115.95	-393.97	543.22	125.59	-270.03	1075.5	-84.086	-343.67	72.894	-65.916	-450.66	270.59	42.22	-239.41	33.158	-76.946	-552.78	255.47	67.456	-436.74	1346.5	-22.837	-297.85	302.13	-122.28	-405.21	41.589	-102.33	-356.99	664.07	-414.5	-418.44	921.86	-350.72	-311.31	131.98	-110.43	-586.44	833.05	-14.166	-427.59	908.68	135.24	-445.48	903.59	-283.59	-425.6	378.88	89.229	-278.27	19.147	-164.1	-360.07	56.29	-144.69	-595.4	839.37	-121.79	-524.17	225.11	22.473	-640.66	60.978	-40.609	-328.52	818.94	80.401	-589.94	176.02	4.2936	-715.72	207.91	-30.232	-676.62	74.928	40.039	-677.34	174.43	24.22	-616.61	31.575	1.5358	-646.24	169.81	-52.521
273	1.365	-292.43	1432.9	-123.32	-303.99	1424.2	-27.659	-315.06	1182	-84.586	-507.33	1146.3	29.843	-391.19	1214.3	93.403	-378.8	1073.7	176.17	-302.15	832.5	210.6	-274.02	736.1	175.21	-312.93	730.44	235.49	-258.38	682.65	229.29	-382.3	1206	-275.45	-365.79	1037.9	-338.75	-362.75	827.83	-385.34	-382.82	717.52	-407.73	-388.81	629.22	140.17	-377.75	459.56	106.31	-348.27	486.17	-232.39	-309.48	585.97	-233.57	-358.54	568.43	-262.36	-315.91	399.16	-191.51	-332.01	716.69	-370	-369.51	651.39	-284.14	-544.4	1065.5	-77.495	-372.28	943.81	206.09	-328	817.78	-227.94	-459.25	1265.2	-91.506	-329.27	552.42	105.85	-322.21	212.57	-176.6	-188.3	30.64	-99.486	-415.89	1350.9	-154.98	-307	214.55	-116.22	-385.21	544.25	125.67	-264.45	1076.5	-84.036	-343.55	72.907	-65.933	-438.81	271.92	42.326	-239.48	33.168	-76.939	-540.86	256.85	67.785	-430.98	1347.6	-22.808	-295.79	301.73	-122.6	-405.24	41.658	-102.4	-347.82	665.14	-414	-411.21	922.8	-351.08	-310.74	131.66	-110.62	-580.77	833.82	-14.02	-422.76	909.75	135.18	-438.83	904.4	-284.14	-414.16	380.03	89.451	-278.3	19.17	-164.14	-360.07	56.29	-144.71	-589.88	840.56	-121.56	-512.43	226.46	22.73	-627.41	62.169	-37.991	-322.64	819.87	80.379	-578.13	177.33	4.7372	-704.42	208.39	-30.239	-663.82	77.258	42.15	-665.64	176.01	24.75	-603.32	32.756	4.8331	-634.43	170.68	-51.992
274	1.37	-286.54	1433.6	-123.29	-298.11	1425	-27.626	-309.38	1182.9	-84.42	-501.72	1147.1	29.792	-385.8	1215.2	93.506	-373.82	1074.7	176.39	-297.76	833.07	210.79	-270.04	736.53	175.29	-308.91	731.04	235.64	-254.65	682.88	229.27	-376.57	1207	-275.31	-358.66	1038.9	-338.42	-354.72	828.9	-385.14	-373.92	718.45	-407.61	-381.59	630.23	140.06	-367.67	460.67	106.48	-345.24	486.18	-232.53	-305.56	585.66	-234.15	-355.01	568.51	-262.59	-313.45	398.86	-191.68	-323.4	717.98	-369.51	-365.37	651.6	-284.3	-538.64	1066.3	-77.465	-367.52	944.59	206.19	-323.03	818.7	-228.24	-453.58	1266	-91.421	-320.78	554.32	105.78	-321.16	212.3	-176.76	-188.25	30.636	-99.463	-410.12	1351.8	-154.92	-305.7	214.2	-116.44	-376.57	545.36	125.73	-258.86	1077.4	-83.877	-343.42	72.913	-65.939	-426.89	273.31	42.341	-239.54	33.174	-76.934	-528.81	258.07	68.062	-425.21	1348.6	-22.749	-293.76	301.32	-122.89	-405.27	41.736	-102.46	-338.57	666.24	-413.51	-404	923.69	-351.44	-310.18	131.35	-110.79	-575.16	834.65	-13.924	-417.93	910.75	135.21	-432.19	905.14	-284.7	-402.79	381.31	89.595	-278.33	19.185	-164.17	-360.06	56.293	-144.72	-584.37	841.75	-121.38	-500.5	227.71	22.941	-613.54	63.105	-35.44	-316.81	820.84	80.461	-566.04	178.41	5.1667	-692.95	208.29	-30.212	-650.38	79.19	44.241	-653.61	177.15	25.295	-589.24	33.918	8.007	-622.33	171.16	-51.461
275	1.375	-280.67	1434.4	-123.25	-292.26	1425.8	-27.571	-303.7	1183.8	-84.227	-496.12	1147.8	29.75	-380.41	1216	93.643	-368.86	1075.5	176.64	-293.34	833.59	211.01	-266.01	736.93	175.39	-304.83	731.6	235.82	-250.84	683.11	229.28	-370.87	1207.9	-275.17	-351.61	1039.8	-338.09	-346.67	829.93	-384.92	-364.97	719.34	-407.47	-374.46	631.27	139.95	-357.74	461.86	106.59	-342.24	486.19	-232.64	-301.69	585.34	-234.71	-351.51	568.58	-262.79	-311	398.56	-191.81	-314.74	719.26	-369.03	-361.28	651.78	-284.43	-532.89	1067.1	-77.435	-362.74	945.33	206.34	-318.11	819.57	-228.53	-447.89	1266.8	-91.299	-312.41	556.26	105.7	-320.1	212.04	-176.89	-188.18	30.617	-99.445	-404.36	1352.6	-154.84	-304.42	213.85	-116.63	-368.05	546.53	125.76	-253.27	1078.2	-83.611	-343.29	72.91	-65.931	-414.88	274.73	42.281	-239.58	33.173	-76.927	-516.65	259.11	68.299	-419.45	1349.5	-22.662	-291.76	300.91	-123.12	-405.29	41.822	-102.5	-329.24	667.36	-413.02	-396.8	924.53	-351.8	-309.62	131.04	-110.91	-569.61	835.54	-13.877	-413.11	911.69	135.33	-425.57	905.8	-285.27	-391.47	382.68	89.669	-278.34	19.194	-164.2	-360.03	56.299	-144.71	-578.87	842.94	-121.22	-488.37	228.84	23.115	-599.12	63.787	-33	-311.04	821.84	80.64	-553.69	179.24	5.5898	-681.29	207.61	-30.13	-636.34	80.696	46.276	-641.28	177.82	25.858	-574.44	35.032	11.006	-609.95	171.27	-50.925
276	1.38	-274.83	1435.1	-123.18	-286.42	1426.6	-27.494	-298.02	1184.6	-84.008	-490.52	1148.4	29.716	-375.03	1216.7	93.81	-363.9	1076.4	176.91	-288.88	834.08	211.26	-261.93	737.32	175.52	-300.7	732.13	236.04	-246.95	683.34	229.3	-365.19	1208.7	-275.01	-344.65	1040.7	-337.76	-338.61	830.94	-384.69	-355.99	720.21	-407.31	-367.41	632.32	139.85	-347.95	463.13	106.66	-339.25	486.18	-232.7	-297.83	585	-235.22	-348.03	568.63	-262.94	-308.55	398.26	-191.91	-306.04	720.54	-368.53	-357.21	651.93	-284.53	-527.14	1067.9	-77.409	-357.94	946.02	206.54	-313.22	820.4	-228.83	-442.18	1267.6	-91.145	-304.15	558.23	105.6	-319.01	211.77	-176.99	-188.08	30.582	-99.43	-398.6	1353.5	-154.73	-303.16	213.5	-116.78	-359.65	547.74	125.77	-247.67	1079.1	-83.242	-343.15	72.898	-65.908	-402.81	276.17	42.155	-239.61	33.165	-76.916	-504.38	259.96	68.503	-413.68	1350.4	-22.547	-289.77	300.49	-123.3	-405.29	41.915	-102.54	-319.84	668.52	-412.55	-389.62	925.33	-352.15	-309.06	130.73	-111	-564.1	836.48	-13.879	-408.3	912.55	135.54	-418.96	906.4	-285.83	-380.21	384.12	89.677	-278.36	19.201	-164.22	-360	56.309	-144.7	-573.37	844.12	-121.11	-476.06	229.85	23.261	-584.17	64.221	-30.707	-305.34	822.87	80.906	-541.09	179.81	6.0102	-669.43	206.36	-29.974	-621.73	81.762	48.225	-628.65	178.02	26.444	-558.98	36.072	13.785	-597.31	170.99	-50.382
277	1.385	-269.01	1435.8	-123.09	-280.61	1427.3	-27.394	-292.33	1185.3	-83.765	-484.93	1149.1	29.691	-369.65	1217.4	94.004	-358.93	1077.1	177.21	-284.38	834.54	211.53	-257.81	737.68	175.67	-296.5	732.62	236.28	-242.98	683.59	229.37	-359.52	1209.5	-274.84	-337.77	1041.5	-337.43	-330.55	831.93	-384.43	-346.97	721.06	-407.12	-360.45	633.38	139.75	-338.28	464.46	106.68	-336.28	486.17	-232.72	-294	584.65	-235.69	-344.55	568.67	-263.05	-306.11	397.95	-191.96	-297.3	721.81	-368.02	-353.16	652.05	-284.6	-521.4	1068.7	-77.39	-353.13	946.66	206.79	-308.35	821.19	-229.14	-436.44	1268.3	-90.962	-296	560.22	105.51	-317.9	211.52	-177.04	-187.96	30.53	-99.416	-392.85	1354.3	-154.6	-301.9	213.14	-116.88	-351.36	548.98	125.77	-242.06	1079.9	-82.774	-343.01	72.878	-65.869	-390.67	277.61	41.971	-239.62	33.15	-76.901	-492	260.61	68.682	-407.91	1351.2	-22.406	-287.79	300.08	-123.42	-405.29	42.013	-102.56	-310.36	669.72	-412.07	-382.47	926.08	-352.5	-308.51	130.42	-111.05	-558.64	837.47	-13.929	-403.48	913.35	135.83	-412.36	906.94	-286.38	-369	385.6	89.629	-278.36	19.205	-164.23	-359.95	56.325	-144.67	-567.87	845.28	-121.04	-463.58	230.71	23.382	-568.74	64.415	-28.593	-299.7	823.93	81.248	-528.24	180.11	6.4282	-657.38	204.58	-29.73	-606.59	82.38	50.062	-615.73	177.75	27.053	-542.9	37.014	16.307	-584.41	170.36	-49.832
278	1.39	-263.22	1436.5	-122.97	-274.81	1428	-27.272	-286.63	1186.1	-83.5	-479.35	1149.7	29.675	-364.25	1218	94.219	-353.96	1077.8	177.51	-279.85	834.96	211.83	-253.62	738.02	175.86	-292.25	733.08	236.57	-238.92	683.83	229.47	-353.87	1210.2	-274.66	-331	1042.3	-337.12	-322.5	832.89	-384.17	-337.93	721.89	-406.9	-353.57	634.43	139.66	-328.73	465.85	106.66	-333.3	486.14	-232.71	-290.17	584.29	-236.1	-341.07	568.68	-263.1	-303.66	397.63	-191.98	-288.54	723.09	-367.49	-349.1	652.15	-284.63	-515.67	1069.4	-77.379	-348.29	947.26	207.07	-303.49	821.95	-229.45	-430.67	1269	-90.756	-287.95	562.24	105.42	-316.77	211.26	-177.06	-187.82	30.462	-99.401	-387.11	1355	-154.44	-300.64	212.78	-116.94	-343.18	550.23	125.75	-236.43	1080.6	-82.211	-342.85	72.848	-65.811	-378.48	279.02	41.736	-239.62	33.128	-76.88	-479.52	261.04	68.84	-402.13	1352	-22.24	-285.83	299.66	-123.48	-405.28	42.115	-102.56	-300.83	670.96	-411.59	-375.35	926.79	-352.84	-307.95	130.11	-111.07	-553.22	838.5	-14.024	-398.67	914.08	136.18	-405.76	907.42	-286.93	-357.85	387.11	89.532	-278.36	19.209	-164.24	-359.89	56.346	-144.62	-562.36	846.41	-121.01	-450.94	231.42	23.48	-552.86	64.381	-26.68	-294.14	824.99	81.654	-515.16	180.15	6.8408	-645.11	202.27	-29.387	-590.96	82.551	51.768	-602.52	177.01	27.686	-526.27	37.84	18.541	-571.27	169.39	-49.275
